<mxfile host="app.diagrams.net" agent="Mozilla/5.0 (Macintosh; Intel Mac OS X 10_15_7) AppleWebKit/605.1.15 (KHTML, like Gecko) Version/17.0 Safari/605.1.15" version="24.8.2">
  <diagram name="Page-1" id="kY_4-UehaZQfXs6YiRf7">
    <mxGraphModel dx="2391" dy="2523" grid="1" gridSize="10" guides="1" tooltips="1" connect="1" arrows="1" fold="1" page="1" pageScale="1" pageWidth="827" pageHeight="1169" math="0" shadow="0">
      <root>
        <mxCell id="0" />
        <mxCell id="1" parent="0" />
        <mxCell id="8T5PM7vIkm9oIY1M5KxE-1" style="edgeStyle=orthogonalEdgeStyle;rounded=0;orthogonalLoop=1;jettySize=auto;html=1;entryX=0.5;entryY=0;entryDx=0;entryDy=0;" edge="1" parent="1" source="8T5PM7vIkm9oIY1M5KxE-4" target="8T5PM7vIkm9oIY1M5KxE-12">
          <mxGeometry relative="1" as="geometry" />
        </mxCell>
        <mxCell id="8T5PM7vIkm9oIY1M5KxE-2" style="edgeStyle=orthogonalEdgeStyle;rounded=0;orthogonalLoop=1;jettySize=auto;html=1;entryX=0;entryY=0.5;entryDx=0;entryDy=0;" edge="1" parent="1" source="8T5PM7vIkm9oIY1M5KxE-4" target="8T5PM7vIkm9oIY1M5KxE-28">
          <mxGeometry relative="1" as="geometry" />
        </mxCell>
        <mxCell id="8T5PM7vIkm9oIY1M5KxE-3" value="Click Register" style="edgeLabel;html=1;align=center;verticalAlign=middle;resizable=0;points=[];" vertex="1" connectable="0" parent="8T5PM7vIkm9oIY1M5KxE-2">
          <mxGeometry y="-1" relative="1" as="geometry">
            <mxPoint x="-5" y="-11" as="offset" />
          </mxGeometry>
        </mxCell>
        <mxCell id="8T5PM7vIkm9oIY1M5KxE-4" value="&lt;b&gt;&lt;u&gt;/login&lt;/u&gt;&lt;/b&gt;" style="html=1;align=center;verticalAlign=top;rounded=1;absoluteArcSize=1;arcSize=10;dashed=0;whiteSpace=wrap;" vertex="1" parent="1">
          <mxGeometry x="305" y="40" width="140" height="40" as="geometry" />
        </mxCell>
        <mxCell id="8T5PM7vIkm9oIY1M5KxE-5" style="edgeStyle=orthogonalEdgeStyle;rounded=0;orthogonalLoop=1;jettySize=auto;html=1;entryX=0;entryY=0.5;entryDx=0;entryDy=0;exitX=0.5;exitY=1;exitDx=0;exitDy=0;" edge="1" parent="1" source="8T5PM7vIkm9oIY1M5KxE-12" target="8T5PM7vIkm9oIY1M5KxE-19">
          <mxGeometry relative="1" as="geometry">
            <mxPoint x="360" y="500" as="sourcePoint" />
          </mxGeometry>
        </mxCell>
        <mxCell id="8T5PM7vIkm9oIY1M5KxE-6" value="Clicks Avatar" style="edgeLabel;html=1;align=center;verticalAlign=middle;resizable=0;points=[];" vertex="1" connectable="0" parent="8T5PM7vIkm9oIY1M5KxE-5">
          <mxGeometry x="0.109" y="-2" relative="1" as="geometry">
            <mxPoint as="offset" />
          </mxGeometry>
        </mxCell>
        <mxCell id="8T5PM7vIkm9oIY1M5KxE-7" style="edgeStyle=orthogonalEdgeStyle;rounded=0;orthogonalLoop=1;jettySize=auto;html=1;exitX=0.319;exitY=0.981;exitDx=0;exitDy=0;exitPerimeter=0;entryX=0.5;entryY=0;entryDx=0;entryDy=0;" edge="1" parent="1" source="8T5PM7vIkm9oIY1M5KxE-12" target="8T5PM7vIkm9oIY1M5KxE-65">
          <mxGeometry relative="1" as="geometry">
            <mxPoint x="320" y="430" as="sourcePoint" />
            <mxPoint x="320" y="660" as="targetPoint" />
            <Array as="points">
              <mxPoint x="320" y="399" />
            </Array>
          </mxGeometry>
        </mxCell>
        <mxCell id="8T5PM7vIkm9oIY1M5KxE-8" value="Has Access to" style="edgeLabel;html=1;align=center;verticalAlign=middle;resizable=0;points=[];" vertex="1" connectable="0" parent="8T5PM7vIkm9oIY1M5KxE-7">
          <mxGeometry x="-0.1889" y="-1" relative="1" as="geometry">
            <mxPoint as="offset" />
          </mxGeometry>
        </mxCell>
        <mxCell id="8T5PM7vIkm9oIY1M5KxE-9" style="edgeStyle=orthogonalEdgeStyle;rounded=0;orthogonalLoop=1;jettySize=auto;html=1;exitX=1;exitY=1;exitDx=0;exitDy=0;" edge="1" parent="1" source="8T5PM7vIkm9oIY1M5KxE-12">
          <mxGeometry relative="1" as="geometry">
            <mxPoint x="860" y="480" as="targetPoint" />
            <Array as="points">
              <mxPoint x="530" y="480" />
              <mxPoint x="818" y="480" />
            </Array>
          </mxGeometry>
        </mxCell>
        <mxCell id="8T5PM7vIkm9oIY1M5KxE-10" value="Enters Filtering Details" style="edgeLabel;html=1;align=center;verticalAlign=middle;resizable=0;points=[];" vertex="1" connectable="0" parent="8T5PM7vIkm9oIY1M5KxE-9">
          <mxGeometry x="0.061" y="-1" relative="1" as="geometry">
            <mxPoint y="-11" as="offset" />
          </mxGeometry>
        </mxCell>
        <mxCell id="8T5PM7vIkm9oIY1M5KxE-11" style="edgeStyle=orthogonalEdgeStyle;rounded=0;orthogonalLoop=1;jettySize=auto;html=1;entryX=1;entryY=0.5;entryDx=0;entryDy=0;" edge="1" parent="1" source="8T5PM7vIkm9oIY1M5KxE-12" target="8T5PM7vIkm9oIY1M5KxE-33">
          <mxGeometry relative="1" as="geometry" />
        </mxCell>
        <mxCell id="8T5PM7vIkm9oIY1M5KxE-12" value="&lt;b&gt;&lt;u&gt;/home&lt;/u&gt;&lt;/b&gt;" style="html=1;align=center;verticalAlign=top;rounded=1;absoluteArcSize=1;arcSize=10;dashed=0;whiteSpace=wrap;" vertex="1" parent="1">
          <mxGeometry x="220" y="320" width="310" height="80" as="geometry" />
        </mxCell>
        <mxCell id="8T5PM7vIkm9oIY1M5KxE-13" style="edgeStyle=orthogonalEdgeStyle;rounded=0;orthogonalLoop=1;jettySize=auto;html=1;entryX=0.75;entryY=0;entryDx=0;entryDy=0;exitX=0.694;exitY=1.003;exitDx=0;exitDy=0;exitPerimeter=0;" edge="1" parent="1" source="8T5PM7vIkm9oIY1M5KxE-19" target="8T5PM7vIkm9oIY1M5KxE-81">
          <mxGeometry relative="1" as="geometry">
            <mxPoint x="721.666666666667" y="970" as="targetPoint" />
            <Array as="points" />
          </mxGeometry>
        </mxCell>
        <mxCell id="8T5PM7vIkm9oIY1M5KxE-14" value="Clicks &quot;Edit Profile&quot;" style="edgeLabel;html=1;align=center;verticalAlign=middle;resizable=0;points=[];" vertex="1" connectable="0" parent="8T5PM7vIkm9oIY1M5KxE-13">
          <mxGeometry x="0.6977" y="4" relative="1" as="geometry">
            <mxPoint y="-1" as="offset" />
          </mxGeometry>
        </mxCell>
        <mxCell id="8T5PM7vIkm9oIY1M5KxE-15" style="edgeStyle=orthogonalEdgeStyle;rounded=0;orthogonalLoop=1;jettySize=auto;html=1;exitX=1;exitY=0.75;exitDx=0;exitDy=0;entryX=0;entryY=0.75;entryDx=0;entryDy=0;" edge="1" parent="1" source="8T5PM7vIkm9oIY1M5KxE-19" target="8T5PM7vIkm9oIY1M5KxE-26">
          <mxGeometry relative="1" as="geometry" />
        </mxCell>
        <mxCell id="8T5PM7vIkm9oIY1M5KxE-16" value="Contains (Involving User)" style="edgeLabel;html=1;align=center;verticalAlign=middle;resizable=0;points=[];" vertex="1" connectable="0" parent="8T5PM7vIkm9oIY1M5KxE-15">
          <mxGeometry x="0.1256" y="-1" relative="1" as="geometry">
            <mxPoint x="-30" as="offset" />
          </mxGeometry>
        </mxCell>
        <mxCell id="8T5PM7vIkm9oIY1M5KxE-17" style="edgeStyle=orthogonalEdgeStyle;rounded=0;orthogonalLoop=1;jettySize=auto;html=1;exitX=0;exitY=1;exitDx=0;exitDy=0;entryX=1;entryY=0;entryDx=0;entryDy=0;" edge="1" parent="1" source="8T5PM7vIkm9oIY1M5KxE-19" target="8T5PM7vIkm9oIY1M5KxE-65">
          <mxGeometry relative="1" as="geometry" />
        </mxCell>
        <mxCell id="8T5PM7vIkm9oIY1M5KxE-18" value="Contains (Involving User)" style="edgeLabel;html=1;align=center;verticalAlign=middle;resizable=0;points=[];" vertex="1" connectable="0" parent="8T5PM7vIkm9oIY1M5KxE-17">
          <mxGeometry x="-0.3467" y="2" relative="1" as="geometry">
            <mxPoint x="-63" as="offset" />
          </mxGeometry>
        </mxCell>
        <mxCell id="8T5PM7vIkm9oIY1M5KxE-19" value="&lt;b&gt;&lt;u&gt;/profile/user-id&lt;/u&gt;&lt;/b&gt;" style="html=1;align=center;verticalAlign=top;rounded=1;absoluteArcSize=1;arcSize=10;dashed=0;whiteSpace=wrap;" vertex="1" parent="1">
          <mxGeometry x="687" y="590" width="140" height="50" as="geometry" />
        </mxCell>
        <mxCell id="8T5PM7vIkm9oIY1M5KxE-20" value="" style="edgeStyle=orthogonalEdgeStyle;rounded=0;orthogonalLoop=1;jettySize=auto;html=1;exitX=0;exitY=0.25;exitDx=0;exitDy=0;entryX=1;entryY=0.25;entryDx=0;entryDy=0;" edge="1" parent="1" source="8T5PM7vIkm9oIY1M5KxE-26" target="8T5PM7vIkm9oIY1M5KxE-19">
          <mxGeometry relative="1" as="geometry" />
        </mxCell>
        <mxCell id="8T5PM7vIkm9oIY1M5KxE-21" value="Clicks Avatar" style="edgeLabel;html=1;align=center;verticalAlign=middle;resizable=0;points=[];" vertex="1" connectable="0" parent="8T5PM7vIkm9oIY1M5KxE-20">
          <mxGeometry x="0.0726" y="-1" relative="1" as="geometry">
            <mxPoint as="offset" />
          </mxGeometry>
        </mxCell>
        <mxCell id="8T5PM7vIkm9oIY1M5KxE-22" style="edgeStyle=orthogonalEdgeStyle;rounded=0;orthogonalLoop=1;jettySize=auto;html=1;entryX=0;entryY=0.5;entryDx=0;entryDy=0;" edge="1" parent="1" source="8T5PM7vIkm9oIY1M5KxE-26" target="8T5PM7vIkm9oIY1M5KxE-48">
          <mxGeometry relative="1" as="geometry" />
        </mxCell>
        <mxCell id="8T5PM7vIkm9oIY1M5KxE-23" value="Clicks &quot;Join&quot;" style="edgeLabel;html=1;align=center;verticalAlign=middle;resizable=0;points=[];" vertex="1" connectable="0" parent="8T5PM7vIkm9oIY1M5KxE-22">
          <mxGeometry x="-0.0256" relative="1" as="geometry">
            <mxPoint as="offset" />
          </mxGeometry>
        </mxCell>
        <mxCell id="8T5PM7vIkm9oIY1M5KxE-24" style="edgeStyle=orthogonalEdgeStyle;rounded=0;orthogonalLoop=1;jettySize=auto;html=1;entryX=0.5;entryY=0;entryDx=0;entryDy=0;" edge="1" parent="1" source="8T5PM7vIkm9oIY1M5KxE-26" target="8T5PM7vIkm9oIY1M5KxE-59">
          <mxGeometry relative="1" as="geometry" />
        </mxCell>
        <mxCell id="8T5PM7vIkm9oIY1M5KxE-25" value="Clicks &quot;More Info&quot; ||&amp;nbsp;&lt;div&gt;Clicks &quot;Event Name&quot;&lt;/div&gt;" style="edgeLabel;html=1;align=center;verticalAlign=middle;resizable=0;points=[];" vertex="1" connectable="0" parent="8T5PM7vIkm9oIY1M5KxE-24">
          <mxGeometry x="-0.0879" relative="1" as="geometry">
            <mxPoint x="20" as="offset" />
          </mxGeometry>
        </mxCell>
        <mxCell id="8T5PM7vIkm9oIY1M5KxE-26" value="&lt;u&gt;&lt;b&gt;Rooms(room-id):&lt;/b&gt;&lt;/u&gt;&lt;div&gt;if no filters applied - show all rooms&lt;/div&gt;&lt;div&gt;if filters applied - show filtered rooms&lt;/div&gt;" style="html=1;align=center;verticalAlign=top;rounded=1;absoluteArcSize=1;arcSize=10;dashed=0;whiteSpace=wrap;" vertex="1" parent="1">
          <mxGeometry x="1241" y="590" width="219" height="50" as="geometry" />
        </mxCell>
        <mxCell id="8T5PM7vIkm9oIY1M5KxE-27" style="edgeStyle=orthogonalEdgeStyle;rounded=0;orthogonalLoop=1;jettySize=auto;html=1;entryX=0;entryY=0.5;entryDx=0;entryDy=0;" edge="1" parent="1" source="8T5PM7vIkm9oIY1M5KxE-28" target="8T5PM7vIkm9oIY1M5KxE-84">
          <mxGeometry relative="1" as="geometry">
            <mxPoint x="850" y="59.99999999999977" as="targetPoint" />
          </mxGeometry>
        </mxCell>
        <mxCell id="8T5PM7vIkm9oIY1M5KxE-28" value="&lt;b&gt;&lt;u&gt;/register:&lt;/u&gt;&lt;/b&gt;&lt;div&gt;&lt;br&gt;&lt;/div&gt;" style="html=1;align=center;verticalAlign=top;rounded=1;absoluteArcSize=1;arcSize=10;dashed=0;whiteSpace=wrap;" vertex="1" parent="1">
          <mxGeometry x="605" y="40" width="140" height="40" as="geometry" />
        </mxCell>
        <mxCell id="8T5PM7vIkm9oIY1M5KxE-29" value="Login" style="text;html=1;align=center;verticalAlign=middle;whiteSpace=wrap;rounded=0;" vertex="1" parent="1">
          <mxGeometry x="345" y="100" width="60" height="30" as="geometry" />
        </mxCell>
        <mxCell id="8T5PM7vIkm9oIY1M5KxE-30" value="Logout" style="text;html=1;align=center;verticalAlign=middle;whiteSpace=wrap;rounded=0;" vertex="1" parent="1">
          <mxGeometry x="110" y="330" width="60" height="30" as="geometry" />
        </mxCell>
        <mxCell id="8T5PM7vIkm9oIY1M5KxE-31" style="edgeStyle=orthogonalEdgeStyle;rounded=0;orthogonalLoop=1;jettySize=auto;html=1;entryX=0.5;entryY=0;entryDx=0;entryDy=0;" edge="1" parent="1" source="8T5PM7vIkm9oIY1M5KxE-32" target="8T5PM7vIkm9oIY1M5KxE-4">
          <mxGeometry relative="1" as="geometry" />
        </mxCell>
        <mxCell id="8T5PM7vIkm9oIY1M5KxE-32" value="" style="shape=ellipse;html=1;fillColor=strokeColor;fontSize=18;fontColor=#ffffff;" vertex="1" parent="1">
          <mxGeometry x="355" y="-80" width="40" height="40" as="geometry" />
        </mxCell>
        <mxCell id="8T5PM7vIkm9oIY1M5KxE-33" value="" style="ellipse;html=1;shape=endState;fillColor=#000000;strokeColor=#ff0000;" vertex="1" parent="1">
          <mxGeometry x="40" y="345" width="30" height="30" as="geometry" />
        </mxCell>
        <mxCell id="8T5PM7vIkm9oIY1M5KxE-34" value="Successful Registration" style="endArrow=classic;html=1;rounded=0;exitX=0;exitY=1;exitDx=0;exitDy=0;" edge="1" parent="1" source="8T5PM7vIkm9oIY1M5KxE-28" target="8T5PM7vIkm9oIY1M5KxE-12">
          <mxGeometry width="50" height="50" relative="1" as="geometry">
            <mxPoint x="515" y="350" as="sourcePoint" />
            <mxPoint x="535" y="160" as="targetPoint" />
          </mxGeometry>
        </mxCell>
        <mxCell id="8T5PM7vIkm9oIY1M5KxE-35" value="" style="endArrow=classic;html=1;rounded=0;exitX=1;exitY=0.5;exitDx=0;exitDy=0;entryX=0;entryY=0.5;entryDx=0;entryDy=0;" edge="1" parent="1" source="8T5PM7vIkm9oIY1M5KxE-12" target="8T5PM7vIkm9oIY1M5KxE-38">
          <mxGeometry width="50" height="50" relative="1" as="geometry">
            <mxPoint x="570" y="380" as="sourcePoint" />
            <mxPoint x="620" y="360" as="targetPoint" />
          </mxGeometry>
        </mxCell>
        <mxCell id="8T5PM7vIkm9oIY1M5KxE-36" value="" style="edgeStyle=orthogonalEdgeStyle;rounded=0;orthogonalLoop=1;jettySize=auto;html=1;" edge="1" parent="1" source="8T5PM7vIkm9oIY1M5KxE-38" target="8T5PM7vIkm9oIY1M5KxE-40">
          <mxGeometry relative="1" as="geometry" />
        </mxCell>
        <mxCell id="8T5PM7vIkm9oIY1M5KxE-37" value="Contains" style="edgeLabel;html=1;align=center;verticalAlign=middle;resizable=0;points=[];" vertex="1" connectable="0" parent="8T5PM7vIkm9oIY1M5KxE-36">
          <mxGeometry x="-0.0556" y="3" relative="1" as="geometry">
            <mxPoint as="offset" />
          </mxGeometry>
        </mxCell>
        <mxCell id="8T5PM7vIkm9oIY1M5KxE-38" value="&lt;b&gt;&lt;u&gt;/create-room&lt;/u&gt;&lt;/b&gt;" style="html=1;align=center;verticalAlign=top;rounded=1;absoluteArcSize=1;arcSize=10;dashed=0;whiteSpace=wrap;" vertex="1" parent="1">
          <mxGeometry x="630" y="340" width="140" height="40" as="geometry" />
        </mxCell>
        <mxCell id="8T5PM7vIkm9oIY1M5KxE-39" value="Update RoomList (+1)" style="edgeStyle=orthogonalEdgeStyle;rounded=0;orthogonalLoop=1;jettySize=auto;html=1;" edge="1" parent="1" source="8T5PM7vIkm9oIY1M5KxE-40" target="8T5PM7vIkm9oIY1M5KxE-45">
          <mxGeometry x="0.0039" relative="1" as="geometry">
            <mxPoint as="offset" />
          </mxGeometry>
        </mxCell>
        <mxCell id="8T5PM7vIkm9oIY1M5KxE-40" value="&lt;b&gt;&lt;u&gt;RoomForm:&lt;/u&gt;&lt;/b&gt;&lt;div&gt;- Location&lt;/div&gt;&lt;div&gt;- Event Name&lt;/div&gt;&lt;div&gt;- Date&lt;/div&gt;&lt;div&gt;- Start Time&lt;/div&gt;&lt;div&gt;-End Time&lt;/div&gt;&lt;div&gt;- Pax Required&lt;/div&gt;&lt;div&gt;- Description&lt;/div&gt;" style="rounded=1;whiteSpace=wrap;html=1;verticalAlign=top;arcSize=10;dashed=0;" vertex="1" parent="1">
          <mxGeometry x="860" y="300" width="210" height="120" as="geometry" />
        </mxCell>
        <mxCell id="8T5PM7vIkm9oIY1M5KxE-41" value="" style="edgeStyle=orthogonalEdgeStyle;rounded=0;orthogonalLoop=1;jettySize=auto;html=1;" edge="1" parent="1" source="8T5PM7vIkm9oIY1M5KxE-45" target="8T5PM7vIkm9oIY1M5KxE-26">
          <mxGeometry relative="1" as="geometry" />
        </mxCell>
        <mxCell id="8T5PM7vIkm9oIY1M5KxE-42" value="Contains" style="edgeLabel;html=1;align=center;verticalAlign=middle;resizable=0;points=[];" vertex="1" connectable="0" parent="8T5PM7vIkm9oIY1M5KxE-41">
          <mxGeometry x="-0.0188" y="-1" relative="1" as="geometry">
            <mxPoint as="offset" />
          </mxGeometry>
        </mxCell>
        <mxCell id="8T5PM7vIkm9oIY1M5KxE-43" style="edgeStyle=orthogonalEdgeStyle;rounded=0;orthogonalLoop=1;jettySize=auto;html=1;entryX=0.5;entryY=0;entryDx=0;entryDy=0;exitX=0.941;exitY=-0.008;exitDx=0;exitDy=0;exitPerimeter=0;" edge="1" parent="1" source="8T5PM7vIkm9oIY1M5KxE-12" target="8T5PM7vIkm9oIY1M5KxE-45">
          <mxGeometry relative="1" as="geometry">
            <mxPoint x="1310" y="300" as="targetPoint" />
            <mxPoint x="1310.5" y="140" as="sourcePoint" />
            <Array as="points">
              <mxPoint x="512" y="240" />
              <mxPoint x="1350" y="240" />
              <mxPoint x="1350" y="340" />
            </Array>
          </mxGeometry>
        </mxCell>
        <mxCell id="8T5PM7vIkm9oIY1M5KxE-44" value="Has Access to" style="edgeLabel;html=1;align=center;verticalAlign=middle;resizable=0;points=[];" vertex="1" connectable="0" parent="8T5PM7vIkm9oIY1M5KxE-43">
          <mxGeometry x="-0.0676" relative="1" as="geometry">
            <mxPoint as="offset" />
          </mxGeometry>
        </mxCell>
        <mxCell id="8T5PM7vIkm9oIY1M5KxE-45" value="&lt;b&gt;&lt;u&gt;RoomList&amp;nbsp;&lt;/u&gt;&lt;/b&gt;" style="rounded=1;whiteSpace=wrap;html=1;verticalAlign=top;arcSize=10;dashed=0;" vertex="1" parent="1">
          <mxGeometry x="1280" y="340" width="139" height="45" as="geometry" />
        </mxCell>
        <mxCell id="8T5PM7vIkm9oIY1M5KxE-46" style="edgeStyle=orthogonalEdgeStyle;rounded=0;orthogonalLoop=1;jettySize=auto;html=1;entryX=0.5;entryY=1;entryDx=0;entryDy=0;" edge="1" parent="1" source="8T5PM7vIkm9oIY1M5KxE-48" target="8T5PM7vIkm9oIY1M5KxE-60">
          <mxGeometry relative="1" as="geometry">
            <mxPoint x="1580" y="440" as="targetPoint" />
          </mxGeometry>
        </mxCell>
        <mxCell id="8T5PM7vIkm9oIY1M5KxE-47" value="Clicks &quot;Quit&quot;" style="edgeLabel;html=1;align=center;verticalAlign=middle;resizable=0;points=[];" vertex="1" connectable="0" parent="8T5PM7vIkm9oIY1M5KxE-46">
          <mxGeometry x="-0.1667" y="1" relative="1" as="geometry">
            <mxPoint as="offset" />
          </mxGeometry>
        </mxCell>
        <mxCell id="8T5PM7vIkm9oIY1M5KxE-48" value="&lt;div&gt;&lt;b&gt;&lt;u&gt;/JoinEvent/room-id:&lt;/u&gt;&lt;/b&gt;&lt;/div&gt;Update Room Pax (+1)&lt;div&gt;Status: Joined&lt;/div&gt;" style="html=1;align=center;verticalAlign=top;rounded=1;absoluteArcSize=1;arcSize=10;dashed=0;whiteSpace=wrap;" vertex="1" parent="1">
          <mxGeometry x="1510" y="500" width="170" height="60" as="geometry" />
        </mxCell>
        <mxCell id="8T5PM7vIkm9oIY1M5KxE-49" style="edgeStyle=orthogonalEdgeStyle;rounded=0;orthogonalLoop=1;jettySize=auto;html=1;entryX=0.5;entryY=1;entryDx=0;entryDy=0;exitX=1;exitY=0.25;exitDx=0;exitDy=0;" edge="1" parent="1" source="8T5PM7vIkm9oIY1M5KxE-59" target="8T5PM7vIkm9oIY1M5KxE-48">
          <mxGeometry relative="1" as="geometry" />
        </mxCell>
        <mxCell id="8T5PM7vIkm9oIY1M5KxE-50" value="if &quot;Not Joined&quot;: Clicks &quot;Join&quot;" style="edgeLabel;html=1;align=center;verticalAlign=middle;resizable=0;points=[];" vertex="1" connectable="0" parent="8T5PM7vIkm9oIY1M5KxE-49">
          <mxGeometry x="-0.3532" relative="1" as="geometry">
            <mxPoint x="73" y="-80" as="offset" />
          </mxGeometry>
        </mxCell>
        <mxCell id="8T5PM7vIkm9oIY1M5KxE-51" style="edgeStyle=orthogonalEdgeStyle;rounded=0;orthogonalLoop=1;jettySize=auto;html=1;entryX=1;entryY=0.5;entryDx=0;entryDy=0;" edge="1" parent="1" source="8T5PM7vIkm9oIY1M5KxE-59" target="8T5PM7vIkm9oIY1M5KxE-60">
          <mxGeometry relative="1" as="geometry">
            <mxPoint x="1760" y="360" as="targetPoint" />
            <mxPoint x="1410" y="790" as="sourcePoint" />
            <Array as="points">
              <mxPoint x="1761" y="790" />
              <mxPoint x="1761" y="425" />
            </Array>
          </mxGeometry>
        </mxCell>
        <mxCell id="8T5PM7vIkm9oIY1M5KxE-52" value="if &quot;Joined&quot;: Clicks &quot;Quit&quot;" style="edgeLabel;html=1;align=center;verticalAlign=middle;resizable=0;points=[];" vertex="1" connectable="0" parent="8T5PM7vIkm9oIY1M5KxE-51">
          <mxGeometry x="0.324" y="1" relative="1" as="geometry">
            <mxPoint as="offset" />
          </mxGeometry>
        </mxCell>
        <mxCell id="8T5PM7vIkm9oIY1M5KxE-53" style="edgeStyle=orthogonalEdgeStyle;rounded=0;orthogonalLoop=1;jettySize=auto;html=1;exitX=0;exitY=0;exitDx=0;exitDy=0;entryX=0.868;entryY=1.023;entryDx=0;entryDy=0;entryPerimeter=0;" edge="1" parent="1" source="8T5PM7vIkm9oIY1M5KxE-59" target="8T5PM7vIkm9oIY1M5KxE-12">
          <mxGeometry relative="1" as="geometry">
            <mxPoint x="540" y="490" as="targetPoint" />
            <Array as="points">
              <mxPoint x="1160" y="750" />
              <mxPoint x="1160" y="550" />
              <mxPoint x="490" y="550" />
              <mxPoint x="490" y="450" />
              <mxPoint x="489" y="450" />
            </Array>
          </mxGeometry>
        </mxCell>
        <mxCell id="8T5PM7vIkm9oIY1M5KxE-54" value="Clicks &quot;Back&quot;" style="edgeLabel;html=1;align=center;verticalAlign=middle;resizable=0;points=[];" vertex="1" connectable="0" parent="8T5PM7vIkm9oIY1M5KxE-53">
          <mxGeometry x="0.0357" relative="1" as="geometry">
            <mxPoint as="offset" />
          </mxGeometry>
        </mxCell>
        <mxCell id="8T5PM7vIkm9oIY1M5KxE-55" style="edgeStyle=orthogonalEdgeStyle;rounded=0;orthogonalLoop=1;jettySize=auto;html=1;entryX=0.5;entryY=0;entryDx=0;entryDy=0;" edge="1" parent="1" source="8T5PM7vIkm9oIY1M5KxE-59" target="8T5PM7vIkm9oIY1M5KxE-73">
          <mxGeometry relative="1" as="geometry">
            <mxPoint x="1351" y="890" as="targetPoint" />
          </mxGeometry>
        </mxCell>
        <mxCell id="8T5PM7vIkm9oIY1M5KxE-56" value="Contains" style="edgeLabel;html=1;align=center;verticalAlign=middle;resizable=0;points=[];" vertex="1" connectable="0" parent="8T5PM7vIkm9oIY1M5KxE-55">
          <mxGeometry x="-0.0623" y="-1" relative="1" as="geometry">
            <mxPoint as="offset" />
          </mxGeometry>
        </mxCell>
        <mxCell id="8T5PM7vIkm9oIY1M5KxE-57" style="edgeStyle=orthogonalEdgeStyle;rounded=0;orthogonalLoop=1;jettySize=auto;html=1;exitX=1.005;exitY=0.659;exitDx=0;exitDy=0;entryX=0.5;entryY=1;entryDx=0;entryDy=0;exitPerimeter=0;" edge="1" parent="1" source="8T5PM7vIkm9oIY1M5KxE-59" target="8T5PM7vIkm9oIY1M5KxE-76">
          <mxGeometry relative="1" as="geometry">
            <mxPoint x="1580" y="890" as="targetPoint" />
          </mxGeometry>
        </mxCell>
        <mxCell id="8T5PM7vIkm9oIY1M5KxE-58" value="if &quot;Event Expired&quot; || User == Room Owner&lt;div&gt;: Clicks &quot;Delete&quot;&lt;span style=&quot;caret-color: rgba(0, 0, 0, 0); color: rgba(0, 0, 0, 0); font-family: monospace; font-size: 0px; text-align: start; background-color: rgb(251, 251, 251);&quot;&gt;%3E%3Croot%3E%3CmxCell%20id%3D%220%22%2F%3E%3CmxCell%20id%3D%221%22%20parent%3D%220%22%2F%3E%3CmxCell%20id%3D%222%22%20value%3D%22%2Fprofile%2Fuser-id%22%20style%3D%22html%3D1%3Balign%3Dcenter%3BverticalAlign%3Dtop%3Brounded%3D1%3BabsoluteArcSize%3D1%3BarcSize%3D10%3Bdashed%3D0%3BwhiteSpace%3Dwrap%3B%22%20vertex%3D%221%22%20parent%3D%221%22%3E%3CmxGeometry%20x%3D%22687%22%20y%3D%22590%22%20width%3D%22140%22%20height%3D%2250%22%20as%3D%22geometry%22%2F%3E%3C%2FmxCell%3E%3C%2Froot%3E%3C%2FmxGraphModel%3E:&lt;/span&gt;&lt;/div&gt;" style="edgeLabel;html=1;align=center;verticalAlign=middle;resizable=0;points=[];" vertex="1" connectable="0" parent="8T5PM7vIkm9oIY1M5KxE-57">
          <mxGeometry x="0.5363" y="1" relative="1" as="geometry">
            <mxPoint x="1" y="-61" as="offset" />
          </mxGeometry>
        </mxCell>
        <mxCell id="8T5PM7vIkm9oIY1M5KxE-59" value="&lt;u&gt;&lt;b&gt;/room/room-id:&lt;/b&gt;&lt;/u&gt;&lt;div&gt;- More Details of Event&lt;/div&gt;&lt;div&gt;- Direction to Venue&lt;/div&gt;" style="html=1;align=center;verticalAlign=top;rounded=1;absoluteArcSize=1;arcSize=10;dashed=0;whiteSpace=wrap;" vertex="1" parent="1">
          <mxGeometry x="1256" y="750" width="189" height="80" as="geometry" />
        </mxCell>
        <mxCell id="8T5PM7vIkm9oIY1M5KxE-60" value="&lt;div&gt;&lt;b&gt;&lt;u&gt;/quitEvent/room-id:&lt;/u&gt;&lt;/b&gt;&lt;/div&gt;Update Room Pax (-1)&lt;div&gt;Status: Not joined&lt;/div&gt;" style="html=1;align=center;verticalAlign=top;rounded=1;absoluteArcSize=1;arcSize=10;dashed=0;whiteSpace=wrap;" vertex="1" parent="1">
          <mxGeometry x="1510" y="390" width="140" height="60" as="geometry" />
        </mxCell>
        <mxCell id="8T5PM7vIkm9oIY1M5KxE-61" style="edgeStyle=orthogonalEdgeStyle;rounded=0;orthogonalLoop=1;jettySize=auto;html=1;" edge="1" parent="1" source="8T5PM7vIkm9oIY1M5KxE-65" target="8T5PM7vIkm9oIY1M5KxE-19">
          <mxGeometry relative="1" as="geometry">
            <mxPoint x="760" y="775" as="targetPoint" />
            <Array as="points">
              <mxPoint x="575" y="775" />
              <mxPoint x="757" y="776" />
            </Array>
          </mxGeometry>
        </mxCell>
        <mxCell id="8T5PM7vIkm9oIY1M5KxE-62" value="Clicks Avatar" style="edgeLabel;html=1;align=center;verticalAlign=middle;resizable=0;points=[];" vertex="1" connectable="0" parent="8T5PM7vIkm9oIY1M5KxE-61">
          <mxGeometry x="-0.3373" y="-1" relative="1" as="geometry">
            <mxPoint as="offset" />
          </mxGeometry>
        </mxCell>
        <mxCell id="8T5PM7vIkm9oIY1M5KxE-63" style="edgeStyle=orthogonalEdgeStyle;rounded=0;orthogonalLoop=1;jettySize=auto;html=1;exitX=1;exitY=0.75;exitDx=0;exitDy=0;entryX=0.004;entryY=0.575;entryDx=0;entryDy=0;entryPerimeter=0;" edge="1" parent="1" source="8T5PM7vIkm9oIY1M5KxE-65" target="8T5PM7vIkm9oIY1M5KxE-59">
          <mxGeometry relative="1" as="geometry">
            <mxPoint x="1150" y="870" as="targetPoint" />
            <mxPoint x="450" y="800" as="sourcePoint" />
            <Array as="points">
              <mxPoint x="450" y="798" />
              <mxPoint x="450" y="795" />
              <mxPoint x="1150" y="795" />
            </Array>
          </mxGeometry>
        </mxCell>
        <mxCell id="8T5PM7vIkm9oIY1M5KxE-64" value="Clicks &quot;Room Name&quot;" style="edgeLabel;html=1;align=center;verticalAlign=middle;resizable=0;points=[];" vertex="1" connectable="0" parent="8T5PM7vIkm9oIY1M5KxE-63">
          <mxGeometry x="0.0567" y="2" relative="1" as="geometry">
            <mxPoint x="48" as="offset" />
          </mxGeometry>
        </mxCell>
        <mxCell id="8T5PM7vIkm9oIY1M5KxE-65" value="&lt;b&gt;&lt;u&gt;ActivitiesList&lt;/u&gt;&lt;/b&gt;" style="html=1;align=center;verticalAlign=top;rounded=1;absoluteArcSize=1;arcSize=10;dashed=0;whiteSpace=wrap;" vertex="1" parent="1">
          <mxGeometry x="255" y="760" width="140" height="50" as="geometry" />
        </mxCell>
        <mxCell id="8T5PM7vIkm9oIY1M5KxE-66" style="edgeStyle=orthogonalEdgeStyle;rounded=0;orthogonalLoop=1;jettySize=auto;html=1;entryX=0.25;entryY=0;entryDx=0;entryDy=0;" edge="1" parent="1" source="8T5PM7vIkm9oIY1M5KxE-68" target="8T5PM7vIkm9oIY1M5KxE-26">
          <mxGeometry relative="1" as="geometry" />
        </mxCell>
        <mxCell id="8T5PM7vIkm9oIY1M5KxE-67" value="Clicks &quot;Apply Filter&quot;" style="edgeLabel;html=1;align=center;verticalAlign=middle;resizable=0;points=[];" vertex="1" connectable="0" parent="8T5PM7vIkm9oIY1M5KxE-66">
          <mxGeometry x="-0.1956" y="-3" relative="1" as="geometry">
            <mxPoint x="-19" y="-8" as="offset" />
          </mxGeometry>
        </mxCell>
        <mxCell id="8T5PM7vIkm9oIY1M5KxE-68" value="&lt;u&gt;&lt;b&gt;Filter:&lt;/b&gt;&lt;/u&gt;&lt;div&gt;- Location&lt;/div&gt;&lt;div&gt;- Date&lt;/div&gt;&lt;div&gt;- Start Time&lt;/div&gt;" style="html=1;align=center;verticalAlign=top;rounded=1;absoluteArcSize=1;arcSize=10;dashed=0;whiteSpace=wrap;" vertex="1" parent="1">
          <mxGeometry x="860" y="440" width="150" height="70" as="geometry" />
        </mxCell>
        <mxCell id="8T5PM7vIkm9oIY1M5KxE-69" style="edgeStyle=orthogonalEdgeStyle;rounded=0;orthogonalLoop=1;jettySize=auto;html=1;exitX=0;exitY=0.25;exitDx=0;exitDy=0;entryX=0.645;entryY=1.033;entryDx=0;entryDy=0;entryPerimeter=0;" edge="1" parent="1" source="8T5PM7vIkm9oIY1M5KxE-19" target="8T5PM7vIkm9oIY1M5KxE-12">
          <mxGeometry relative="1" as="geometry" />
        </mxCell>
        <mxCell id="8T5PM7vIkm9oIY1M5KxE-70" value="Clicks &quot;Back&quot;" style="edgeLabel;html=1;align=center;verticalAlign=middle;resizable=0;points=[];" vertex="1" connectable="0" parent="8T5PM7vIkm9oIY1M5KxE-69">
          <mxGeometry x="-0.4809" y="1" relative="1" as="geometry">
            <mxPoint as="offset" />
          </mxGeometry>
        </mxCell>
        <mxCell id="8T5PM7vIkm9oIY1M5KxE-71" style="edgeStyle=orthogonalEdgeStyle;rounded=0;orthogonalLoop=1;jettySize=auto;html=1;" edge="1" parent="1">
          <mxGeometry relative="1" as="geometry">
            <mxPoint x="1280" y="912.0000000000005" as="sourcePoint" />
            <mxPoint x="811" y="640" as="targetPoint" />
          </mxGeometry>
        </mxCell>
        <mxCell id="8T5PM7vIkm9oIY1M5KxE-72" value="Clicks &quot;Avatar&quot;" style="edgeLabel;html=1;align=center;verticalAlign=middle;resizable=0;points=[];" vertex="1" connectable="0" parent="8T5PM7vIkm9oIY1M5KxE-71">
          <mxGeometry x="-0.3076" y="-3" relative="1" as="geometry">
            <mxPoint as="offset" />
          </mxGeometry>
        </mxCell>
        <mxCell id="8T5PM7vIkm9oIY1M5KxE-73" value="&lt;u&gt;Participant Details&lt;/u&gt;" style="html=1;align=center;verticalAlign=top;rounded=1;absoluteArcSize=1;arcSize=10;dashed=0;whiteSpace=wrap;" vertex="1" parent="1">
          <mxGeometry x="1280" y="900" width="140" height="30" as="geometry" />
        </mxCell>
        <mxCell id="8T5PM7vIkm9oIY1M5KxE-74" style="edgeStyle=orthogonalEdgeStyle;rounded=0;orthogonalLoop=1;jettySize=auto;html=1;entryX=1;entryY=0.5;entryDx=0;entryDy=0;exitX=0;exitY=0.5;exitDx=0;exitDy=0;" edge="1" parent="1" source="8T5PM7vIkm9oIY1M5KxE-76" target="8T5PM7vIkm9oIY1M5KxE-45">
          <mxGeometry relative="1" as="geometry">
            <mxPoint x="1470" y="430" as="targetPoint" />
            <Array as="points">
              <mxPoint x="1850" y="360" />
              <mxPoint x="1470" y="360" />
              <mxPoint x="1470" y="363" />
            </Array>
          </mxGeometry>
        </mxCell>
        <mxCell id="8T5PM7vIkm9oIY1M5KxE-75" value="Update RoomList (-1)" style="edgeLabel;html=1;align=center;verticalAlign=middle;resizable=0;points=[];" vertex="1" connectable="0" parent="8T5PM7vIkm9oIY1M5KxE-74">
          <mxGeometry x="-0.0649" y="-2" relative="1" as="geometry">
            <mxPoint as="offset" />
          </mxGeometry>
        </mxCell>
        <mxCell id="8T5PM7vIkm9oIY1M5KxE-76" value="&lt;div&gt;&lt;b&gt;&lt;u&gt;/deleteRoom:&lt;/u&gt;&lt;/b&gt;&lt;/div&gt;Room Deleted" style="html=1;align=center;verticalAlign=top;rounded=1;absoluteArcSize=1;arcSize=10;dashed=0;whiteSpace=wrap;" vertex="1" parent="1">
          <mxGeometry x="1850" y="342.5" width="140" height="40" as="geometry" />
        </mxCell>
        <mxCell id="8T5PM7vIkm9oIY1M5KxE-77" style="edgeStyle=orthogonalEdgeStyle;rounded=0;orthogonalLoop=1;jettySize=auto;html=1;exitX=0;exitY=0.25;exitDx=0;exitDy=0;entryX=1.003;entryY=0.127;entryDx=0;entryDy=0;entryPerimeter=0;" edge="1" parent="1" source="8T5PM7vIkm9oIY1M5KxE-40" target="8T5PM7vIkm9oIY1M5KxE-12">
          <mxGeometry relative="1" as="geometry" />
        </mxCell>
        <mxCell id="8T5PM7vIkm9oIY1M5KxE-78" value="Clicks &quot;Back&quot;" style="edgeLabel;html=1;align=center;verticalAlign=middle;resizable=0;points=[];" vertex="1" connectable="0" parent="8T5PM7vIkm9oIY1M5KxE-77">
          <mxGeometry x="0.0922" y="-2" relative="1" as="geometry">
            <mxPoint x="29" y="-8" as="offset" />
          </mxGeometry>
        </mxCell>
        <mxCell id="8T5PM7vIkm9oIY1M5KxE-79" style="edgeStyle=orthogonalEdgeStyle;rounded=0;orthogonalLoop=1;jettySize=auto;html=1;exitX=0.25;exitY=0;exitDx=0;exitDy=0;entryX=0.057;entryY=1.037;entryDx=0;entryDy=0;entryPerimeter=0;" edge="1" parent="1" source="8T5PM7vIkm9oIY1M5KxE-81" target="8T5PM7vIkm9oIY1M5KxE-19">
          <mxGeometry relative="1" as="geometry" />
        </mxCell>
        <mxCell id="8T5PM7vIkm9oIY1M5KxE-80" value="Clicks &quot;Back&quot;" style="edgeLabel;html=1;align=center;verticalAlign=middle;resizable=0;points=[];" vertex="1" connectable="0" parent="8T5PM7vIkm9oIY1M5KxE-79">
          <mxGeometry x="-0.2431" y="2" relative="1" as="geometry">
            <mxPoint y="23" as="offset" />
          </mxGeometry>
        </mxCell>
        <mxCell id="8T5PM7vIkm9oIY1M5KxE-81" value="&lt;b&gt;&lt;u&gt;/update-user:&lt;/u&gt;&lt;/b&gt;&lt;div&gt;- Add/Change Profile Pic&lt;/div&gt;&lt;div&gt;- Change Name&lt;/div&gt;&lt;div&gt;- Change Username&lt;/div&gt;&lt;div&gt;- Change Bio&lt;/div&gt;" style="html=1;align=center;verticalAlign=top;rounded=1;absoluteArcSize=1;arcSize=10;dashed=0;whiteSpace=wrap;" vertex="1" parent="1">
          <mxGeometry x="650" y="1020" width="180" height="90" as="geometry" />
        </mxCell>
        <mxCell id="8T5PM7vIkm9oIY1M5KxE-82" style="edgeStyle=orthogonalEdgeStyle;rounded=0;orthogonalLoop=1;jettySize=auto;html=1;exitX=0.431;exitY=-0.007;exitDx=0;exitDy=0;entryX=0.295;entryY=1.003;entryDx=0;entryDy=0;entryPerimeter=0;exitPerimeter=0;" edge="1" parent="1" source="8T5PM7vIkm9oIY1M5KxE-81" target="8T5PM7vIkm9oIY1M5KxE-19">
          <mxGeometry relative="1" as="geometry" />
        </mxCell>
        <mxCell id="8T5PM7vIkm9oIY1M5KxE-83" value="Update&amp;nbsp;&lt;div&gt;Profile&lt;/div&gt;" style="edgeLabel;html=1;align=center;verticalAlign=middle;resizable=0;points=[];" vertex="1" connectable="0" parent="8T5PM7vIkm9oIY1M5KxE-82">
          <mxGeometry x="0.0785" y="3" relative="1" as="geometry">
            <mxPoint x="5" y="25" as="offset" />
          </mxGeometry>
        </mxCell>
        <mxCell id="8T5PM7vIkm9oIY1M5KxE-84" value="&lt;b&gt;&lt;u&gt;RegistrationForm:&lt;/u&gt;&lt;/b&gt;&lt;div&gt;- Name&amp;nbsp;&lt;/div&gt;&lt;div&gt;- Username&lt;/div&gt;&lt;div&gt;-Email&lt;/div&gt;&lt;div&gt;-Password&lt;/div&gt;" style="html=1;align=center;verticalAlign=top;rounded=1;absoluteArcSize=1;arcSize=10;dashed=0;whiteSpace=wrap;" vertex="1" parent="1">
          <mxGeometry x="865" y="17.5" width="200" height="85" as="geometry" />
        </mxCell>
        <mxCell id="8T5PM7vIkm9oIY1M5KxE-85" style="edgeStyle=orthogonalEdgeStyle;rounded=0;orthogonalLoop=1;jettySize=auto;html=1;entryX=0.54;entryY=0.994;entryDx=0;entryDy=0;entryPerimeter=0;" edge="1" parent="1" source="8T5PM7vIkm9oIY1M5KxE-87" target="8T5PM7vIkm9oIY1M5KxE-90">
          <mxGeometry relative="1" as="geometry">
            <mxPoint x="1940" y="915" as="targetPoint" />
          </mxGeometry>
        </mxCell>
        <mxCell id="8T5PM7vIkm9oIY1M5KxE-86" value="Contains" style="edgeLabel;html=1;align=center;verticalAlign=middle;resizable=0;points=[];" vertex="1" connectable="0" parent="8T5PM7vIkm9oIY1M5KxE-85">
          <mxGeometry x="0.011" y="1" relative="1" as="geometry">
            <mxPoint as="offset" />
          </mxGeometry>
        </mxCell>
        <mxCell id="8T5PM7vIkm9oIY1M5KxE-87" value="&lt;div&gt;&lt;b&gt;&lt;u&gt;/updateRoom:&lt;/u&gt;&lt;/b&gt;&lt;/div&gt;" style="html=1;align=center;verticalAlign=top;rounded=1;absoluteArcSize=1;arcSize=10;dashed=0;whiteSpace=wrap;" vertex="1" parent="1">
          <mxGeometry x="1710" y="895" width="140" height="40" as="geometry" />
        </mxCell>
        <mxCell id="8T5PM7vIkm9oIY1M5KxE-88" value="" style="endArrow=classic;html=1;rounded=0;entryX=0;entryY=0.25;entryDx=0;entryDy=0;exitX=1;exitY=1;exitDx=0;exitDy=0;" edge="1" parent="1" source="8T5PM7vIkm9oIY1M5KxE-59" target="8T5PM7vIkm9oIY1M5KxE-87">
          <mxGeometry width="50" height="50" relative="1" as="geometry">
            <mxPoint x="1710" y="780" as="sourcePoint" />
            <mxPoint x="1760" y="730" as="targetPoint" />
          </mxGeometry>
        </mxCell>
        <mxCell id="8T5PM7vIkm9oIY1M5KxE-89" value="if User == Room Owner: Clicks &quot;Update Room&quot;" style="edgeLabel;html=1;align=center;verticalAlign=middle;resizable=0;points=[];" vertex="1" connectable="0" parent="8T5PM7vIkm9oIY1M5KxE-88">
          <mxGeometry x="0.1163" y="4" relative="1" as="geometry">
            <mxPoint y="1" as="offset" />
          </mxGeometry>
        </mxCell>
        <mxCell id="8T5PM7vIkm9oIY1M5KxE-90" value="&lt;b&gt;&lt;u&gt;RoomForm:&lt;/u&gt;&lt;/b&gt;&lt;div&gt;- Location&lt;/div&gt;&lt;div&gt;- Event Name&lt;/div&gt;&lt;div&gt;- Date&lt;/div&gt;&lt;div&gt;- Start Time&lt;/div&gt;&lt;div&gt;-End Time&lt;/div&gt;&lt;div&gt;- Pax Required&lt;/div&gt;&lt;div&gt;- Description&lt;/div&gt;" style="rounded=1;whiteSpace=wrap;html=1;verticalAlign=top;arcSize=10;dashed=0;" vertex="1" parent="1">
          <mxGeometry x="2000" y="760" width="210" height="120" as="geometry" />
        </mxCell>
        <mxCell id="8T5PM7vIkm9oIY1M5KxE-91" value="" style="endArrow=classic;html=1;rounded=0;exitX=0;exitY=0.5;exitDx=0;exitDy=0;entryX=1;entryY=0.867;entryDx=0;entryDy=0;entryPerimeter=0;" edge="1" parent="1" source="8T5PM7vIkm9oIY1M5KxE-90" target="8T5PM7vIkm9oIY1M5KxE-59">
          <mxGeometry width="50" height="50" relative="1" as="geometry">
            <mxPoint x="1800" y="1030" as="sourcePoint" />
            <mxPoint x="1850" y="980" as="targetPoint" />
          </mxGeometry>
        </mxCell>
        <mxCell id="8T5PM7vIkm9oIY1M5KxE-92" value="Update Room" style="edgeLabel;html=1;align=center;verticalAlign=middle;resizable=0;points=[];" vertex="1" connectable="0" parent="8T5PM7vIkm9oIY1M5KxE-91">
          <mxGeometry x="-0.2162" y="2" relative="1" as="geometry">
            <mxPoint as="offset" />
          </mxGeometry>
        </mxCell>
      </root>
    </mxGraphModel>
  </diagram>
</mxfile>
